<?xml version="1.0" encoding="UTF-8"?>
<svg xmlns="http://www.w3.org/2000/svg" width="346.89" height="400.26" viewBox="306.55 99.87 346.89 400.26">
  <!-- Created using SVG Map Generator: dojo.amcharts.com/svg-map-generator -->
  <style>
    .land { fill: #8ff0a4; stroke: #26a269; stroke-width: 1.65; }
    #BR-AC { fill: #e3f9ef; }
    #BR-AL { fill: #21852e; }
    #BR-AM { fill: #e3f9ef; }
    #BR-AP { fill: #e3f9ef; }
    #BR-BA { fill: #21852e; }
    #BR-CE { fill: #21852e; }
    #BR-DF { fill: #e3f9ef; }
    #BR-ES { fill: #21852e; }
    #BR-GO { fill: #21852e; }
    #BR-MA { fill: #21852e; }
    #BR-MG { fill: #21852e; }
    #BR-MS { fill: #21852e; }
    #BR-MT { fill: #e3f9ef; }
    #BR-PA { fill: #21852e; }
    #BR-PB { fill: #e3f9ef; }
    #BR-PE { fill: #21852e; }
    #BR-PI { fill: #21852e; }
    #BR-PR { fill: #21852e; }
    #BR-RJ { fill: #21852e; }
    #BR-RN { fill: #e3f9ef; }
    #BR-RO { fill: #e3f9ef; }
    #BR-RR { fill: #e3f9ef; }
    #BR-RS { fill: #21852e; }
    #BR-SC { fill: #21852e; }
    #BR-SE { fill: #21852e; }
    #BR-SP { fill: #21852e; }
    #BR-TO { fill: #21852e; }
  </style>
  <g id="polygons">
    <path d="M311.77,227.81L322.01,232.61L342.21,238.26L357.46,247.35L373.79,255.11L375.49,255.92L371.98,259.45L364.15,263.39L362.13,266.6L347.87,265.94L341.86,266.9L341.01,251.12L335.3,256.7L327.62,256.77L326.26,252.05L318.39,250.71L320.15,246.57L314.78,240.17L310.2,232.15Z" class="land" id="BR-AC" title="Acre"/>
    <path d="M622.89,252.01L620.79,250.03L624.68,245.22L631.47,249.75L635.23,249.45L639.88,245.54L647.3,245.81L637.18,261.76L628.63,254.53Z" class="land" id="BR-AL" title="Alagoas"/>
    <path d="M400.41,133.83L406.35,136.96L405.41,140.08L408.41,148.07L407.46,156.89L409.6,162.23L407.83,163.99L413.45,170.11L416.88,162.69L419.95,161.16L423.09,164.71L429.11,153.93L439.4,153.97L440.46,162.6L449.89,172.15L454.29,173.95L461.28,179.87L445.85,221.38L444.93,225.8L447.55,229.98L444.75,244.15L418.23,244.36L413.75,244.47L407.06,236.63L401.07,236.67L396.64,246.32L390.95,246.52L382.79,252.45L377.22,250.77L373.79,255.11L357.46,247.35L342.21,238.26L322.01,232.61L311.77,227.81L317.24,220.35L316.14,217.46L318.61,208.21L327,201.63L335.17,200.26L336.77,197.9L343.62,199.56L347.58,171.56L346.17,161.45L342.24,157.81L342.37,150.35L350.33,149.76L348.53,145.45L344.16,145.46L344.19,139.05L358.89,138.91L366.01,135L369.98,143.96L374.57,148.54L385.03,144.99L394.27,139.8L394.53,137.24Z" class="land" id="BR-AM" title="Amazonas"/>
    <path d="M499.97,167.79L496.74,167.61L491.09,158.13L489.33,148.72L486.87,144.33L478.57,138.54L475.44,138.47L475.16,131.55L480.89,135L484.08,132.41L490.93,134.37L493.38,132.38L501.53,116.21L505.41,113.73L507.52,117.18L507.84,124.78L512.49,137.72L517.12,139.05L517.22,144.67L509.84,154.26L504.99,158.49Z" class="land" id="BR-AP" title="Amapá"/>
    <path d="M609.85,337.11L605.88,331.27L606.19,326.49L611.19,318.55L607.82,315.36L598.27,314.65L593.92,308.29L591.35,308.95L581.64,303.4L575.95,304.01L575.98,300.48L571.32,299.47L558.25,308.38L557.2,305.76L557.65,300.54L554.07,293.52L555.32,286.37L553.71,284.82L553.12,272.24L550.01,270.57L551.81,264.37L556.26,260.07L560.25,264.57L564.79,265.54L571.96,261.27L573.78,257.5L572.47,251.1L584.15,251.53L593.37,243.79L597.6,245.27L600.14,251.6L610.22,242.04L619.99,247.48L620.79,250.03L622.89,252.01L625.38,263.03L621.9,263.9L623.88,270.61L628.37,272.04L627.02,277.9L622.08,286.3L618.39,283.1L616.08,291.91L617.6,297.36L616.83,303.56L619.45,315.89L617.65,328.92L618.78,334.17L614.78,340.61Z" class="land" id="BR-BA" title="Bahia"/>
    <path d="M627.82,204.77L623.71,207.1L617.11,220.36L615.51,225.47L616.06,232.81L613.81,235.13L607.77,230.35L600.03,230.5L600.9,225.14L598.27,223.23L595.09,205.63L595.23,200.73L591.19,189.6L592.69,186.61L592.89,185.17L603.51,184.83L616.69,193.66Z" class="land" id="BR-CE" title="Ceará"/>
    <path d="M547.22,317.55L539.14,317.54L539.07,312.02L545.64,312.03Z" class="land" id="BR-DF" title="Distrito Federal"/>
    <path d="M598.59,365.36L599.06,359.64L601.87,359.67L604.89,352.18L602.14,340.38L604.1,336.99L609.85,337.11L614.78,340.61L615.51,350.44L610.8,363.57L606.81,370.41L600.38,368.69Z" class="land" id="BR-ES" title="Espírito Santo"/>
    <path d="M547.22,317.55L545.64,312.03L539.07,312.02L539.14,317.54L547.22,317.55L546.36,322.17L549.44,326.99L546.74,330.54L549.45,337.92L544.17,342.26L535.6,340.37L532.11,343.81L524.08,344.3L519.87,352.03L505.81,344.51L500,337.5L497.94,332.22L499.09,325.9L504.71,315.95L507.76,315.15L510.15,307.68L513.6,305.96L514.56,294.15L517.17,285.37L527.4,288.36L529.32,282.47L531.96,288.8L537.38,287.27L541.36,290.03L553.71,284.82L555.32,286.37L554.07,293.52L557.65,300.54L557.2,305.76L552.9,304.15L549.94,307.48L551.14,315.64Z" class="land" id="BR-GO" title="Goiás"/>
    <path d="M587.51,184.03L587.56,186.76L582.05,190.99L577.82,198.8L579.41,209.87L577.22,212.72L579.56,219.07L578.51,224.2L569.41,224.32L567.02,227.7L557.36,233.47L553.59,245.94L555.47,251.18L554.63,259.94L551.12,258.54L549.06,251.84L544.2,246.5L548.62,239.61L547.75,235.62L544.26,237.08L539.68,229.49L540.4,219.3L538.67,211.3L531.66,208.16L528.4,210.07L542.15,195.38L547.64,181.7L550.46,168.39L563.96,174.64L565.62,181.62L573.51,181.73L574.93,180.08L581.74,183.68Z" class="land" id="BR-MA" title="Maranhão"/>
    <path d="M609.85,337.11L604.1,336.99L602.14,340.38L604.89,352.18L601.87,359.67L599.06,359.64L598.59,365.36L595.25,373.61L590.02,378.15L583.58,378.33L575.33,381.82L567.87,386.27L563.11,386.48L559.84,381.79L559.77,372.07L555.71,371.73L553.8,364.34L550.02,357.2L536.58,359.15L532.17,356.54L523.27,355.68L519.92,358.32L519.87,352.03L524.08,344.3L532.11,343.81L535.6,340.37L544.17,342.26L549.45,337.92L546.74,330.54L549.44,326.99L546.36,322.17L547.22,317.55L551.14,315.64L549.94,307.48L552.9,304.15L557.2,305.76L558.25,308.38L571.32,299.47L575.98,300.48L575.95,304.01L581.64,303.4L591.35,308.95L593.92,308.29L598.27,314.65L607.82,315.36L611.19,318.55L606.19,326.49L605.88,331.27Z" class="land" id="BR-MG" title="Minas Gerais"/>
    <path d="M519.92,358.32L515.7,363.53L513.11,374.89L505.16,384.85L501.88,386.7L497.98,398.48L494.37,395.96L489.88,398.13L486.49,393.94L484.27,384.17L481.72,380.64L463.31,378.64L463.15,367.4L459.09,359.21L458.84,354.9L462.02,339.39L459.77,334.58L465.04,335.11L467.55,330.42L471.79,329.42L481.48,334.16L490.41,333.58L493.08,329.85L493.74,337.52L500,337.5L505.81,344.51L519.87,352.03Z" class="land" id="BR-MS" title="Mato Grosso do Sul"/>
    <path d="M429.5,293.81L432.35,291.28L436,280.33L433.27,272.76L433.76,268.2L420.48,266.81L419.91,253.14L418.23,244.36L444.75,244.15L447.55,229.98L452.18,239.24L452.97,243.76L457.89,248.94L463.33,251.4L517.3,255.18L514.8,263.93L515.47,282.92L517.17,285.37L514.56,294.15L513.6,305.96L510.15,307.68L507.76,315.15L504.71,315.95L499.09,325.9L497.94,332.22L500,337.5L493.74,337.52L493.08,329.85L490.41,333.58L481.48,334.16L471.79,329.42L467.55,330.42L465.04,335.11L459.77,334.58L453.65,330.06L452,320.48L437.16,319.81L431.92,295.03Z" class="land" id="BR-MT" title="Mato Grosso"/>
    <path d="M526.26,171.18L511.5,174.3L509.55,170.74L510.83,158.87L513.58,157.24L530.25,158.86ZM518.44,156.23L518.44,156.23L518.44,156.23ZM508.99,159.07L508.99,159.07L508.99,159.07ZM504.38,161.11L504.38,161.11L504.38,161.11ZM499.99,171.07L502.48,163.6L506.45,163.09L503.61,168.69ZM515.78,156.23L513.04,154.32L518.83,152.85ZM514.24,152.8L514.24,152.8L514.24,152.8ZM517.3,255.18L463.33,251.4L457.89,248.94L452.97,243.76L452.18,239.24L447.55,229.98L444.93,225.8L445.85,221.38L461.28,179.87L454.29,173.95L449.89,172.15L440.46,162.6L439.4,153.97L438.57,142.97L442.5,143.48L454.91,135.91L464.2,137.78L464.69,130.89L475.16,131.55L475.44,138.47L478.57,138.54L486.87,144.33L489.33,148.72L491.09,158.13L496.74,167.61L499.97,167.79L496.6,171.65L500.24,171.83L509.29,165.56L509.73,175.22L522.81,173.98L523.72,175.13L530.91,169.47L533.34,163.34L540.03,162.25L550.46,168.39L547.64,181.7L542.15,195.38L528.4,210.07L533.48,212.63L529.29,223.09L524.65,225.97L523.66,231.53L525.56,234.59L524.49,240.49L518.53,249.96Z" class="land" id="BR-PA" title="Pará"/>
    <path d="M648.98,232.03L645.6,230.41L640.16,234.74L629.88,238.37L628.47,229.29L620.01,235.12L616.06,232.81L615.51,225.47L617.11,220.36L620.64,221.78L623.71,218.24L628.72,217.81L625.92,223.34L634.8,224.55L634.62,220.42L648,221.59Z" class="land" id="BR-PB" title="Paraíba"/>
    <path d="M620.79,250.03L619.99,247.48L610.22,242.04L600.14,251.6L597.6,245.27L593.37,243.79L599.91,237.8L600.03,230.5L607.77,230.35L613.81,235.13L616.06,232.81L620.01,235.12L628.47,229.29L629.88,238.37L640.16,234.74L645.6,230.41L648.98,232.03L649.8,235.98L647.3,245.81L639.88,245.54L635.23,249.45L631.47,249.75L624.68,245.22Z" class="land" id="BR-PE" title="Pernambuco"/>
    <path d="M592.69,186.61L591.19,189.6L595.23,200.73L595.09,205.63L598.27,223.23L600.9,225.14L600.03,230.5L599.91,237.8L593.37,243.79L584.15,251.53L572.47,251.1L573.78,257.5L571.96,261.27L564.79,265.54L560.25,264.57L556.26,260.07L554.63,259.94L555.47,251.18L553.59,245.94L557.36,233.47L567.02,227.7L569.41,224.32L578.51,224.2L579.56,219.07L577.22,212.72L579.41,209.87L577.82,198.8L582.05,190.99L587.56,186.76L587.51,184.03Z" class="land" id="BR-PI" title="Piauí"/>
    <path d="M548.7,417.97L541.32,420.5L536.88,418.29L528.19,420.52L527.43,424.31L506.58,420.82L503.52,414.46L497.08,412.55L497.98,398.48L501.88,386.7L505.16,384.85L513.95,383.01L525.45,387.02L532.34,386.84L541.6,404.99L546.69,404.8L551.89,411.23L549.24,411.04Z" class="land" id="BR-PR" title="Paraná"/>
    <path d="M577.45,391.39L576.41,387.86L580.83,383.73L575.33,381.82L583.58,378.33L590.02,378.15L595.25,373.61L598.59,365.36L600.38,368.69L606.81,370.41L607.57,377.54L599.64,383.43L598.73,387.31L577.49,388.39Z" class="land" id="BR-RJ" title="Rio de Janeiro"/>
    <path d="M648,221.59L634.62,220.42L634.8,224.55L625.92,223.34L628.72,217.81L623.71,218.24L620.64,221.78L617.11,220.36L623.71,207.1L627.82,204.77L632.71,207.46L642.09,207.58L645.49,212.33Z" class="land" id="BR-RN" title="Rio Grande do Norte"/>
    <path d="M375.49,255.92L373.79,255.11L377.22,250.77L382.79,252.45L390.95,246.52L396.64,246.32L401.07,236.67L407.06,236.63L413.75,244.47L418.23,244.36L419.91,253.14L420.48,266.81L433.76,268.2L433.27,272.76L436,280.33L432.35,291.28L429.5,293.81L426.79,291.9L420.2,292.46L417.22,288.48L411.43,287L408.56,283.51L397.13,281.58L391.23,276.76L388.2,271.78L386.26,261.51L387.01,255.15L380.26,254.49Z" class="land" id="BR-RO" title="Rondônia"/>
    <path d="M438.57,142.97L439.4,153.97L429.11,153.93L423.09,164.71L419.95,161.16L416.88,162.69L413.45,170.11L407.83,163.99L409.6,162.23L407.46,156.89L408.41,148.07L405.41,140.08L406.35,136.96L400.41,133.83L394.77,131.4L393.66,120.16L389.27,114.59L394.93,116.96L400.45,116.37L405.89,120.02L406.2,115.84L416.71,113.54L421.71,110.82L424.81,104.17L429.52,103.52L430.78,110.94L433.76,116.05L430.22,125.83L431.89,137.53Z" class="land" id="BR-RR" title="Roraima"/>
    <path d="M506.57,430.01L519.93,430.75L530.84,436.63L536.42,442.59L543.02,443.17L542.08,449.59L545,451.8L542.06,463.31L537.67,472.89L536.22,469.55L539.84,461.54L534.86,461.25L532.39,471L528.81,476.3L529.78,481.45L527.71,491.53L523.55,496.48L521.2,489.75L523.59,486.19L508.56,473.42L495.51,466.69L487.36,459.7L481.19,460.63L488.47,449.22L491.58,442.14L499.06,433.7Z" class="land" id="BR-RS" title="Rio Grande do Sul"/>
    <path d="M545,451.8L542.08,449.59L543.02,443.17L536.42,442.59L530.84,436.63L519.93,430.75L506.57,430.01L506.58,420.82L527.43,424.31L528.19,420.52L536.88,418.29L541.32,420.5L548.7,417.97L547.75,421.09L551.94,437.03L550.91,444.65Z" class="land" id="BR-SC" title="Santa Catarina"/>
    <path d="M628.37,272.04L623.88,270.61L621.9,263.9L625.38,263.03L622.89,252.01L628.63,254.53L637.18,261.76L632,265.38Z" class="land" id="BR-SE" title="Sergipe"/>
    <path d="M551.89,411.23L546.69,404.8L541.6,404.99L532.34,386.84L525.45,387.02L513.95,383.01L505.16,384.85L513.11,374.89L515.7,363.53L519.92,358.32L523.27,355.68L532.17,356.54L536.58,359.15L550.02,357.2L553.8,364.34L555.71,371.73L559.77,372.07L559.84,381.79L563.11,386.48L567.87,386.27L575.33,381.82L580.83,383.73L576.41,387.86L577.45,391.39L560.13,400.67L551.74,408.56Z" class="land" id="BR-SP" title="São Paulo"/>
    <path d="M553.71,284.82L541.36,290.03L537.38,287.27L531.96,288.8L529.32,282.47L527.4,288.36L517.17,285.37L515.47,282.92L514.8,263.93L517.3,255.18L518.53,249.96L524.49,240.49L525.56,234.59L523.66,231.53L524.65,225.97L529.29,223.09L533.48,212.63L528.4,210.07L531.66,208.16L538.67,211.3L540.4,219.3L539.68,229.49L544.26,237.08L547.75,235.62L548.62,239.61L544.2,246.5L549.06,251.84L551.12,258.54L554.63,259.94L556.26,260.07L551.81,264.37L550.01,270.57L553.12,272.24Z" class="land" id="BR-TO" title="Tocantins"/>
  </g>
</svg>