<?xml version="1.0" encoding="UTF-8"?>
<svg xmlns="http://www.w3.org/2000/svg" width="401.52" height="400.26" viewBox="279.24 99.87 401.52 400.26">
  <!-- Created using SVG Map Generator: dojo.amcharts.com/svg-map-generator -->
  <style>
    .land { fill: #8ff0a4; stroke: #26a269; stroke-width: 1.65; }
    #BR-AC { fill: #e3f9ef; }
    #BR-AL { fill: #21852e; }
    #BR-AM { fill: #e3f9ef; }
    #BR-AP { fill: #e3f9ef; }
    #BR-BA { fill: #21852e; }
    #BR-CE { fill: #21852e; }
    #BR-DF { fill: #e3f9ef; }
    #BR-ES { fill: #21852e; }
    #BR-GO { fill: #21852e; }
    #BR-MA { fill: #21852e; }
    #BR-MG { fill: #21852e; }
    #BR-MS { fill: #21852e; }
    #BR-MT { fill: #e3f9ef; }
    #BR-PA { fill: #21852e; }
    #BR-PB { fill: #e3f9ef; }
    #BR-PE { fill: #21852e; }
    #BR-PI { fill: #21852e; }
    #BR-PR { fill: #21852e; }
    #BR-RJ { fill: #21852e; }
    #BR-RN { fill: #e3f9ef; }
    #BR-RO { fill: #e3f9ef; }
    #BR-RR { fill: #e3f9ef; }
    #BR-RS { fill: #21852e; }
    #BR-SC { fill: #21852e; }
    #BR-SE { fill: #21852e; }
    #BR-SP { fill: #21852e; }
    #BR-TO { fill: #21852e; }
  </style>
  <g id="polygons">
    <path d="M285,228.19L296.6,233.01L319.71,238.67L355.2,255.56L357.12,256.36L340.58,267.06L316.89,267.36L317.32,251.55L310.19,257.14L301.22,257.21L300.06,252.48L290.99,251.15L293.4,246.99L282.89,232.54Z" class="land" id="BR-AC" title="Acre"/>
    <path d="M645.77,252.45L643.43,250.46L648.22,245.64L655.89,250.18L665.9,245.96L674.53,246.23L661.87,262.22Z" class="land" id="BR-AL" title="Alagoas"/>
    <path d="M389.98,133.93L396.93,137.06L399.43,148.21L398.77,164.18L405.24,170.32L409.28,162.87L416.47,164.91L423.49,154.08L435.43,154.12L436.64,162.79L447.51,172.37L460.62,180.12L441.31,221.74L442.84,230.37L438.71,244.57L407.81,244.78L402.58,244.89L395.31,237.04L388.35,237.07L382.52,246.74L375.87,246.95L365.91,252.89L359.55,251.2L355.2,255.56L319.71,238.67L296.6,233.01L285,228.19L291.82,220.72L294.04,208.53L304.08,201.94L315.57,198.2L323.46,199.86L328.77,171.78L327.22,161.64L322.67,157.98L322.81,150.5L332.05,149.9L324.85,145.59L324.81,139.16L341.87,139.02L350.07,135.1L360.17,148.68L382.95,139.91Z" class="land" id="BR-AM" title="Amazonas"/>
    <path d="M505.68,167.99L501.93,167.81L495.41,158.31L490.47,144.46L477.14,138.58L476.71,131.63L483.42,135.09L497.87,132.47L506.98,116.24L511.42,113.76L520.14,137.82L525.7,144.8L511.55,158.66Z" class="land" id="BR-AP" title="Amapá"/>
    <path d="M623.55,337.61L620.37,326.99L627.05,319.05L612.25,315.16L593.81,303.9L582.08,299.97L565.9,308.88L564.93,306.26L562.75,285.3L563.07,272.71L559.55,271.04L567.6,260.52L577.17,266L585.83,261.72L587.06,251.54L600.65,251.96L611.82,244.21L619.28,252.03L631.53,242.45L643.43,250.46L645.77,252.45L648.03,263.49L645.8,271.08L650.96,272.51L642.59,286.79L638.52,283.58L635.14,292.4L637.01,316.4L634.38,334.66L628.97,341.1Z" class="land" id="BR-BA" title="Bahia"/>
    <path d="M653.44,205.09L648.6,207.42L640.49,220.72L638.77,233.2L620.21,230.88L611.26,189.87L613.05,186.87L625.65,185.09L640.79,193.94Z" class="land" id="BR-CE" title="Ceará"/>
    <path d="M552,318.06L542.52,318.05L543.02,312.53L550.74,312.53Z" class="land" id="BR-DF" title="Distrito Federal"/>
    <path d="M606.84,365.81L615.96,352.66L614.09,340.87L623.55,337.61L628.97,341.1L628.72,350.91L615.91,370.85Z" class="land" id="BR-ES" title="Espírito Santo"/>
    <path d="M552,318.06L550.74,312.53L543.02,312.53L542.52,318.05L552,318.06L552.28,338.42L545.51,342.75L535.64,340.86L521.56,344.78L515.53,352.51L499.96,344.99L494.06,337.99L494.47,326.4L509.56,308.18L513.79,306.46L519.96,285.86L547.85,290.52L562.75,285.3L564.93,306.26L556.25,307.98L556.81,316.15Z" class="land" id="BR-GO" title="Goiás"/>
    <path d="M607.09,184.28L595.52,199.1L597.04,210.2L594.4,213.06L595.45,224.57L584.87,224.7L570.43,233.86L565.37,246.36L565.7,260.39L554.4,246.93L559.94,240.02L550.05,229.87L549.65,211.64L537.75,210.41L554.18,195.67L560.85,181.95L564.28,168.59L579.89,174.86L581.72,181.86L592.54,180.32Z" class="land" id="BR-MA" title="Maranhão"/>
    <path d="M623.55,337.61L614.09,340.87L615.96,352.66L606.84,365.81L594.92,378.58L576.94,382.23L561.7,386.88L558.53,382.21L559.9,372.51L555.14,372.17L550.45,357.67L534.28,359.61L519.04,356.15L514.7,358.78L515.53,352.51L521.56,344.78L535.64,340.86L545.51,342.75L552.28,338.42L552,318.06L556.81,316.15L556.25,307.98L564.93,306.26L565.9,308.88L582.08,299.97L593.81,303.9L612.25,315.16L627.05,319.05L620.37,326.99Z" class="land" id="BR-MG" title="Minas Gerais"/>
    <path d="M514.7,358.78L508.94,363.99L504.12,375.32L493.02,385.25L488.81,387.1L482.07,398.84L472.47,398.49L465.88,381.05L444.36,379.07L446.08,367.85L442.99,355.37L449.03,339.88L447.06,335.08L453.19,335.61L461.9,329.92L472.68,334.66L483.27,334.08L494.06,337.99L499.96,344.99L515.53,352.51Z" class="land" id="BR-MS" title="Mato Grosso do Sul"/>
    <path d="M416.55,294.3L425.54,280.81L424.04,268.66L408.66,267.28L407.81,244.78L438.71,244.57L442.84,230.37L448.3,244.17L459.85,251.84L522.5,255.62L518.96,264.38L518.19,283.41L519.96,285.86L513.79,306.46L509.56,308.18L494.47,326.4L494.06,337.99L483.27,334.08L472.68,334.66L461.9,329.92L453.19,335.61L447.06,335.08L440.47,330.55L439.78,320.99L422.43,320.32L419.24,295.52Z" class="land" id="BR-MT" title="Mato Grosso"/>
    <path d="M536.16,171.39L519,174.52L518.32,159.04L521.53,157.41L540.87,159.04ZM527.16,156.4L527.16,156.4L527.16,156.4ZM516.2,159.25L516.2,159.25L516.2,159.25ZM510.83,161.29L510.83,161.29L510.83,161.29ZM505.68,171.28L505.68,171.28L505.68,171.28ZM524.07,156.4L524.07,156.4L524.07,156.4ZM522.28,152.95L522.28,152.95L522.28,152.95ZM522.5,255.62L459.85,251.84L448.3,244.17L442.84,230.37L441.31,221.74L460.62,180.12L447.51,172.37L436.64,162.79L435.43,154.12L434.4,143.09L438.97,143.6L453.28,136.01L464.09,137.89L464.54,130.97L476.71,131.63L477.14,138.58L490.47,144.46L495.41,158.31L501.93,167.81L505.68,167.99L505.96,172.05L516.51,165.76L516.93,175.45L532.13,174.2L541.58,169.67L544.43,163.53L552.2,162.43L564.28,168.59L560.85,181.95L554.18,195.67L537.75,210.41L543.56,212.97L538.27,223.46L532.73,226.35L531.79,240.91Z" class="land" id="BR-PA" title="Pará"/>
    <path d="M677.11,232.42L654.6,238.78L653.36,229.67L643.26,235.52L638.77,233.2L640.49,220.72L654.09,218.17L650.63,223.71L660.91,224.93L660.85,220.78L676.37,221.95Z" class="land" id="BR-PB" title="Paraíba"/>
    <path d="M643.43,250.46L631.53,242.45L619.28,252.03L611.82,244.21L619.74,238.2L620.21,230.88L638.77,233.2L643.26,235.52L653.36,229.67L654.6,238.78L677.11,232.42L674.53,246.23L665.9,245.96L655.89,250.18L648.22,245.64Z" class="land" id="BR-PE" title="Pernambuco"/>
    <path d="M613.05,186.87L611.26,189.87L620.21,230.88L619.74,238.2L611.82,244.21L600.65,251.96L587.06,251.54L585.83,261.72L577.17,266L567.6,260.52L565.7,260.39L565.37,246.36L570.43,233.86L584.87,224.7L595.45,224.57L594.4,213.06L597.04,210.2L595.52,199.1L607.09,184.28Z" class="land" id="BR-PI" title="Piauí"/>
    <path d="M539.11,418.27L514.03,420.81L512.37,424.58L488.05,421.11L485.65,414.77L478.31,412.87L482.07,398.84L488.81,387.1L493.02,385.25L503.78,383.42L525.02,387.24L532.97,405.33L539.09,405.14L544.17,411.55Z" class="land" id="BR-PR" title="Paraná"/>
    <path d="M578,391.78L583.19,384.13L576.94,382.23L594.92,378.58L606.84,365.81L615.91,370.85L615.86,377.96L603.96,387.71L578.51,388.78Z" class="land" id="BR-RJ" title="Rio de Janeiro"/>
    <path d="M676.37,221.95L660.85,220.78L660.91,224.93L650.63,223.71L654.09,218.17L640.49,220.72L648.6,207.42L653.44,205.09L669.94,207.91Z" class="land" id="BR-RN" title="Rio Grande do Norte"/>
    <path d="M357.12,256.36L355.2,255.56L359.55,251.2L365.91,252.89L375.87,246.95L382.52,246.74L388.35,237.07L395.31,237.04L402.58,244.89L407.81,244.78L408.66,267.28L424.04,268.66L425.54,280.81L416.55,294.3L405.8,292.96L393.13,284L379.97,282.07L370.52,272.25L370.61,255.6Z" class="land" id="BR-RO" title="Rondônia"/>
    <path d="M434.4,143.09L435.43,154.12L423.49,154.08L416.47,164.91L409.28,162.87L405.24,170.32L398.77,164.18L399.43,148.21L396.93,137.06L389.98,133.93L383.39,131.49L381.81,120.21L376.54,114.63L396.25,115.87L414.1,110.84L417.44,104.17L422.89,103.52L428.26,116.09L424.42,125.9L426.58,137.63Z" class="land" id="BR-RR" title="Roraima"/>
    <path d="M486.15,430.26L502.07,431L513.97,436.85L519.45,442.79L527.3,443.36L527.84,451.97L514.12,472.97L519.42,461.66L513.44,461.38L502.49,476.36L497.26,491.54L490.83,496.48L493.61,486.23L478.54,473.5L464.35,466.8L456.19,459.84L448.47,460.76L465.44,442.34L476.32,433.93Z" class="land" id="BR-RS" title="Rio Grande do Sul"/>
    <path d="M527.84,451.97L527.3,443.36L519.45,442.79L513.97,436.85L502.07,431L486.15,430.26L488.05,421.11L512.37,424.58L514.03,420.81L539.11,418.27L539.32,437.25L536.51,444.84Z" class="land" id="BR-SC" title="Santa Catarina"/>
    <path d="M650.96,272.51L645.8,271.08L648.03,263.49L645.77,252.45L661.87,262.22Z" class="land" id="BR-SE" title="Sergipe"/>
    <path d="M544.17,411.55L539.09,405.14L532.97,405.33L525.02,387.24L503.78,383.42L493.02,385.25L504.12,375.32L508.94,363.99L514.7,358.78L519.04,356.15L534.28,359.61L550.45,357.67L555.14,372.17L559.9,372.51L558.53,382.21L561.7,386.88L576.94,382.23L583.19,384.13L578,391.78L555.84,401.03Z" class="land" id="BR-SP" title="São Paulo"/>
    <path d="M562.75,285.3L547.85,290.52L519.96,285.86L518.19,283.41L518.96,264.38L522.5,255.62L531.79,240.91L532.73,226.35L538.27,223.46L543.56,212.97L537.75,210.41L549.65,211.64L550.05,229.87L559.94,240.02L554.4,246.93L565.7,260.39L567.6,260.52L559.55,271.04L563.07,272.71Z" class="land" id="BR-TO" title="Tocantins"/>
  </g>
</svg>